<svg width="216" height="58" viewBox="0 0 216 58" fill="none" xmlns="http://www.w3.org/2000/svg">
<mask id="path-1-outside-1_559_255" maskUnits="userSpaceOnUse" x="0" y="0" width="216" height="58" fill="black">
<rect fill="white" width="216" height="58"/>
<path d="M1 1H214.579V56.162H1V1Z"/>
<path d="M26.3914 10C28.7008 6.00001 34.4743 6 36.7837 10L52.881 37.8813C55.1904 41.8813 52.3036 46.8813 47.6848 46.8813H15.4903C10.8715 46.8813 7.9847 41.8813 10.2941 37.8813L26.3914 10Z"/>
<path d="M30.8293 33.3768C30.7899 32.9172 30.7439 32.3721 30.6914 31.7417C30.6388 31.1113 30.5929 30.4678 30.5535 29.8111C30.5272 29.1545 30.5141 28.5635 30.5141 28.0381V23.5071H32.2083V28.0381C32.2083 28.5635 32.1886 29.1545 32.1492 29.8111C32.1229 30.4678 32.0835 31.1113 32.031 31.7417C31.9916 32.3721 31.9522 32.9172 31.9128 33.3768H30.8293ZM30.1398 37.4941V35.0907H32.5826V37.4941H30.1398Z"/>
<path d="M83.5219 35.5612C82.2891 35.5612 81.2399 35.2457 80.374 34.6146C79.5228 33.9836 78.8698 33.059 78.4149 31.841C77.9746 30.6229 77.7545 29.1481 77.7545 27.4164C77.7545 25.6553 77.9746 24.1658 78.4149 22.9477C78.8698 21.7297 79.5228 20.8051 80.374 20.1741C81.2399 19.543 82.2891 19.2275 83.5219 19.2275C84.7546 19.2275 85.7966 19.543 86.6477 20.1741C87.5136 20.8051 88.1666 21.7297 88.6069 22.9477C89.0618 24.1658 89.2893 25.6553 89.2893 27.4164C89.2893 29.1481 89.0618 30.6229 88.6069 31.841C88.1666 33.059 87.5136 33.9836 86.6477 34.6146C85.7966 35.2457 84.7546 35.5612 83.5219 35.5612ZM83.5219 33.7121C84.329 33.7121 85.0114 33.4773 85.5691 33.0077C86.1414 32.5234 86.5744 31.8116 86.8679 30.8724C87.1614 29.9332 87.3081 28.7812 87.3081 27.4164C87.3081 26.0516 87.1614 24.8995 86.8679 23.9603C86.5744 23.0064 86.1414 22.2873 85.5691 21.8031C85.0114 21.3188 84.329 21.0766 83.5219 21.0766C82.7147 21.0766 82.025 21.3188 81.4527 21.8031C80.895 22.2873 80.4694 23.0064 80.1759 23.9603C79.8824 24.8995 79.7356 26.0516 79.7356 27.4164C79.7356 28.7812 79.8824 29.9332 80.1759 30.8724C80.4694 31.8116 80.895 32.5234 81.4527 33.0077C82.025 33.4773 82.7147 33.7121 83.5219 33.7121Z"/>
<path d="M92.0984 35.209V19.5797H102.224V35.209H100.331V21.4288H93.9915V35.209H92.0984Z"/>
<path d="M104.769 35.209L109.524 19.5797H112.078L116.832 35.209H114.807L110.801 21.2968L106.794 35.209H104.769ZM107.169 30.7624L107.829 28.9133H113.773L114.433 30.7624H107.169Z"/>
<path d="M124.484 35.5612C123.237 35.5612 122.18 35.231 121.314 34.5706C120.449 33.9102 119.788 32.971 119.333 31.7529C118.893 30.5349 118.673 29.0894 118.673 27.4164C118.673 25.7287 118.893 24.2758 119.333 23.0578C119.788 21.8397 120.449 20.9005 121.314 20.2401C122.18 19.5651 123.237 19.2275 124.484 19.2275C125.864 19.2275 127.038 19.6825 128.006 20.5923C128.975 21.4875 129.621 22.7423 129.944 24.3566L127.918 24.4886C127.669 23.3586 127.236 22.5075 126.62 21.9351C126.018 21.3628 125.306 21.0766 124.484 21.0766C123.648 21.0766 122.943 21.3261 122.371 21.8251C121.813 22.3094 121.388 23.0284 121.094 23.9823C120.801 24.9216 120.654 26.0662 120.654 27.4164C120.654 28.7518 120.801 29.8892 121.094 30.8284C121.388 31.7676 121.813 32.4867 122.371 32.9857C122.943 33.47 123.648 33.7121 124.484 33.7121C125.394 33.7121 126.165 33.3966 126.796 32.7655C127.427 32.1345 127.852 31.1953 128.072 29.9479L130.076 30.0579C129.797 31.775 129.166 33.1251 128.183 34.1083C127.199 35.0769 125.967 35.5612 124.484 35.5612Z"/>
<path d="M132.797 35.209V19.5797H134.69V27.1742L133.721 26.4258H142.438L141.47 27.1742V19.5797H143.363V35.209H141.47V27.5264L142.438 28.2749H133.721L134.69 27.5264V35.209H132.797Z"/>
<path d="M151.719 35.5612C150.487 35.5612 149.437 35.2457 148.571 34.6146C147.72 33.9836 147.067 33.059 146.612 31.841C146.172 30.6229 145.952 29.1481 145.952 27.4164C145.952 25.6553 146.172 24.1658 146.612 22.9477C147.067 21.7297 147.72 20.8051 148.571 20.1741C149.437 19.543 150.487 19.2275 151.719 19.2275C152.952 19.2275 153.994 19.543 154.845 20.1741C155.711 20.8051 156.364 21.7297 156.804 22.9477C157.259 24.1658 157.487 25.6553 157.487 27.4164C157.487 29.1481 157.259 30.6229 156.804 31.841C156.364 33.059 155.711 33.9836 154.845 34.6146C153.994 35.2457 152.952 35.5612 151.719 35.5612ZM151.719 33.7121C152.526 33.7121 153.209 33.4773 153.766 33.0077C154.339 32.5234 154.772 31.8116 155.065 30.8724C155.359 29.9332 155.505 28.7812 155.505 27.4164C155.505 26.0516 155.359 24.8995 155.065 23.9603C154.772 23.0064 154.339 22.2873 153.766 21.8031C153.209 21.3188 152.526 21.0766 151.719 21.0766C150.912 21.0766 150.222 21.3188 149.65 21.8031C149.092 22.2873 148.667 23.0064 148.373 23.9603C148.08 24.8995 147.933 26.0516 147.933 27.4164C147.933 28.7812 148.08 29.9332 148.373 30.8724C148.667 31.8116 149.092 32.5234 149.65 33.0077C150.222 33.4773 150.912 33.7121 151.719 33.7121Z"/>
<path d="M165.403 35.5612C164.155 35.5612 163.099 35.231 162.233 34.5706C161.367 33.9102 160.707 32.971 160.252 31.7529C159.811 30.5349 159.591 29.0894 159.591 27.4164C159.591 25.7287 159.811 24.2758 160.252 23.0578C160.707 21.8397 161.367 20.9005 162.233 20.2401C163.099 19.5651 164.155 19.2275 165.403 19.2275C166.782 19.2275 167.956 19.6825 168.925 20.5923C169.893 21.4875 170.539 22.7423 170.862 24.3566L168.837 24.4886C168.587 23.3586 168.154 22.5075 167.538 21.9351C166.936 21.3628 166.225 21.0766 165.403 21.0766C164.566 21.0766 163.862 21.3261 163.29 21.8251C162.732 22.3094 162.306 23.0284 162.013 23.9823C161.719 24.9216 161.572 26.0662 161.572 27.4164C161.572 28.7518 161.719 29.8892 162.013 30.8284C162.306 31.7676 162.732 32.4867 163.29 32.9857C163.862 33.47 164.566 33.7121 165.403 33.7121C166.313 33.7121 167.083 33.3966 167.714 32.7655C168.345 32.1345 168.771 31.1953 168.991 29.9479L170.994 30.0579C170.715 31.775 170.084 33.1251 169.101 34.1083C168.118 35.0769 166.885 35.5612 165.403 35.5612Z"/>
<path d="M178.052 35.209V21.4288H173.275V19.5797H184.722V21.4288H179.945V35.209H178.052Z"/>
<path d="M188.015 19.5797H189.908V25.6553H192.77C193.856 25.6553 194.802 25.8461 195.609 26.2277C196.417 26.6092 197.04 27.1596 197.481 27.8786C197.921 28.5831 198.141 29.4342 198.141 30.4322C198.141 31.4301 197.921 32.2886 197.481 33.0077C197.04 33.7121 196.417 34.2551 195.609 34.6366C194.802 35.0182 193.856 35.209 192.77 35.209H188.015V19.5797ZM189.908 27.5044V33.3599H192.55C193.782 33.3599 194.692 33.1104 195.279 32.6114C195.866 32.0978 196.16 31.3714 196.16 30.4322C196.16 29.4783 195.866 28.7518 195.279 28.2529C194.692 27.7539 193.782 27.5044 192.55 27.5044H189.908Z"/>
</mask>
<path d="M1 1H214.579V56.162H1V1Z" fill="#F5EBE1"/>
<path d="M26.3914 10C28.7008 6.00001 34.4743 6 36.7837 10L52.881 37.8813C55.1904 41.8813 52.3036 46.8813 47.6848 46.8813H15.4903C10.8715 46.8813 7.9847 41.8813 10.2941 37.8813L26.3914 10Z" fill="#FF6400"/>
<path d="M30.8293 33.3768C30.7899 32.9172 30.7439 32.3721 30.6914 31.7417C30.6388 31.1113 30.5929 30.4678 30.5535 29.8111C30.5272 29.1545 30.5141 28.5635 30.5141 28.0381V23.5071H32.2083V28.0381C32.2083 28.5635 32.1886 29.1545 32.1492 29.8111C32.1229 30.4678 32.0835 31.1113 32.031 31.7417C31.9916 32.3721 31.9522 32.9172 31.9128 33.3768H30.8293ZM30.1398 37.4941V35.0907H32.5826V37.4941H30.1398Z" fill="#281F1F"/>
<path d="M83.5219 35.5612C82.2891 35.5612 81.2399 35.2457 80.374 34.6146C79.5228 33.9836 78.8698 33.059 78.4149 31.841C77.9746 30.6229 77.7545 29.1481 77.7545 27.4164C77.7545 25.6553 77.9746 24.1658 78.4149 22.9477C78.8698 21.7297 79.5228 20.8051 80.374 20.1741C81.2399 19.543 82.2891 19.2275 83.5219 19.2275C84.7546 19.2275 85.7966 19.543 86.6477 20.1741C87.5136 20.8051 88.1666 21.7297 88.6069 22.9477C89.0618 24.1658 89.2893 25.6553 89.2893 27.4164C89.2893 29.1481 89.0618 30.6229 88.6069 31.841C88.1666 33.059 87.5136 33.9836 86.6477 34.6146C85.7966 35.2457 84.7546 35.5612 83.5219 35.5612ZM83.5219 33.7121C84.329 33.7121 85.0114 33.4773 85.5691 33.0077C86.1414 32.5234 86.5744 31.8116 86.8679 30.8724C87.1614 29.9332 87.3081 28.7812 87.3081 27.4164C87.3081 26.0516 87.1614 24.8995 86.8679 23.9603C86.5744 23.0064 86.1414 22.2873 85.5691 21.8031C85.0114 21.3188 84.329 21.0766 83.5219 21.0766C82.7147 21.0766 82.025 21.3188 81.4527 21.8031C80.895 22.2873 80.4694 23.0064 80.1759 23.9603C79.8824 24.8995 79.7356 26.0516 79.7356 27.4164C79.7356 28.7812 79.8824 29.9332 80.1759 30.8724C80.4694 31.8116 80.895 32.5234 81.4527 33.0077C82.025 33.4773 82.7147 33.7121 83.5219 33.7121Z" fill="#281F1F"/>
<path d="M92.0984 35.209V19.5797H102.224V35.209H100.331V21.4288H93.9915V35.209H92.0984Z" fill="#281F1F"/>
<path d="M104.769 35.209L109.524 19.5797H112.078L116.832 35.209H114.807L110.801 21.2968L106.794 35.209H104.769ZM107.169 30.7624L107.829 28.9133H113.773L114.433 30.7624H107.169Z" fill="#281F1F"/>
<path d="M124.484 35.5612C123.237 35.5612 122.18 35.231 121.314 34.5706C120.449 33.9102 119.788 32.971 119.333 31.7529C118.893 30.5349 118.673 29.0894 118.673 27.4164C118.673 25.7287 118.893 24.2758 119.333 23.0578C119.788 21.8397 120.449 20.9005 121.314 20.2401C122.18 19.5651 123.237 19.2275 124.484 19.2275C125.864 19.2275 127.038 19.6825 128.006 20.5923C128.975 21.4875 129.621 22.7423 129.944 24.3566L127.918 24.4886C127.669 23.3586 127.236 22.5075 126.62 21.9351C126.018 21.3628 125.306 21.0766 124.484 21.0766C123.648 21.0766 122.943 21.3261 122.371 21.8251C121.813 22.3094 121.388 23.0284 121.094 23.9823C120.801 24.9216 120.654 26.0662 120.654 27.4164C120.654 28.7518 120.801 29.8892 121.094 30.8284C121.388 31.7676 121.813 32.4867 122.371 32.9857C122.943 33.47 123.648 33.7121 124.484 33.7121C125.394 33.7121 126.165 33.3966 126.796 32.7655C127.427 32.1345 127.852 31.1953 128.072 29.9479L130.076 30.0579C129.797 31.775 129.166 33.1251 128.183 34.1083C127.199 35.0769 125.967 35.5612 124.484 35.5612Z" fill="#281F1F"/>
<path d="M132.797 35.209V19.5797H134.69V27.1742L133.721 26.4258H142.438L141.47 27.1742V19.5797H143.363V35.209H141.47V27.5264L142.438 28.2749H133.721L134.69 27.5264V35.209H132.797Z" fill="#281F1F"/>
<path d="M151.719 35.5612C150.487 35.5612 149.437 35.2457 148.571 34.6146C147.72 33.9836 147.067 33.059 146.612 31.841C146.172 30.6229 145.952 29.1481 145.952 27.4164C145.952 25.6553 146.172 24.1658 146.612 22.9477C147.067 21.7297 147.72 20.8051 148.571 20.1741C149.437 19.543 150.487 19.2275 151.719 19.2275C152.952 19.2275 153.994 19.543 154.845 20.1741C155.711 20.8051 156.364 21.7297 156.804 22.9477C157.259 24.1658 157.487 25.6553 157.487 27.4164C157.487 29.1481 157.259 30.6229 156.804 31.841C156.364 33.059 155.711 33.9836 154.845 34.6146C153.994 35.2457 152.952 35.5612 151.719 35.5612ZM151.719 33.7121C152.526 33.7121 153.209 33.4773 153.766 33.0077C154.339 32.5234 154.772 31.8116 155.065 30.8724C155.359 29.9332 155.505 28.7812 155.505 27.4164C155.505 26.0516 155.359 24.8995 155.065 23.9603C154.772 23.0064 154.339 22.2873 153.766 21.8031C153.209 21.3188 152.526 21.0766 151.719 21.0766C150.912 21.0766 150.222 21.3188 149.65 21.8031C149.092 22.2873 148.667 23.0064 148.373 23.9603C148.08 24.8995 147.933 26.0516 147.933 27.4164C147.933 28.7812 148.08 29.9332 148.373 30.8724C148.667 31.8116 149.092 32.5234 149.65 33.0077C150.222 33.4773 150.912 33.7121 151.719 33.7121Z" fill="#281F1F"/>
<path d="M165.403 35.5612C164.155 35.5612 163.099 35.231 162.233 34.5706C161.367 33.9102 160.707 32.971 160.252 31.7529C159.811 30.5349 159.591 29.0894 159.591 27.4164C159.591 25.7287 159.811 24.2758 160.252 23.0578C160.707 21.8397 161.367 20.9005 162.233 20.2401C163.099 19.5651 164.155 19.2275 165.403 19.2275C166.782 19.2275 167.956 19.6825 168.925 20.5923C169.893 21.4875 170.539 22.7423 170.862 24.3566L168.837 24.4886C168.587 23.3586 168.154 22.5075 167.538 21.9351C166.936 21.3628 166.225 21.0766 165.403 21.0766C164.566 21.0766 163.862 21.3261 163.29 21.8251C162.732 22.3094 162.306 23.0284 162.013 23.9823C161.719 24.9216 161.572 26.0662 161.572 27.4164C161.572 28.7518 161.719 29.8892 162.013 30.8284C162.306 31.7676 162.732 32.4867 163.29 32.9857C163.862 33.47 164.566 33.7121 165.403 33.7121C166.313 33.7121 167.083 33.3966 167.714 32.7655C168.345 32.1345 168.771 31.1953 168.991 29.9479L170.994 30.0579C170.715 31.775 170.084 33.1251 169.101 34.1083C168.118 35.0769 166.885 35.5612 165.403 35.5612Z" fill="#281F1F"/>
<path d="M178.052 35.209V21.4288H173.275V19.5797H184.722V21.4288H179.945V35.209H178.052Z" fill="#281F1F"/>
<path d="M188.015 19.5797H189.908V25.6553H192.77C193.856 25.6553 194.802 25.8461 195.609 26.2277C196.417 26.6092 197.04 27.1596 197.481 27.8786C197.921 28.5831 198.141 29.4342 198.141 30.4322C198.141 31.4301 197.921 32.2886 197.481 33.0077C197.04 33.7121 196.417 34.2551 195.609 34.6366C194.802 35.0182 193.856 35.209 192.77 35.209H188.015V19.5797ZM189.908 27.5044V33.3599H192.55C193.782 33.3599 194.692 33.1104 195.279 32.6114C195.866 32.0978 196.16 31.3714 196.16 30.4322C196.16 29.4783 195.866 28.7518 195.279 28.2529C194.692 27.7539 193.782 27.5044 192.55 27.5044H189.908Z" fill="#281F1F"/>
<path d="M1 1H214.579V56.162H1V1Z" stroke="#0C0707" stroke-width="2" mask="url(#path-1-outside-1_559_255)"/>
<path d="M26.3914 10C28.7008 6.00001 34.4743 6 36.7837 10L52.881 37.8813C55.1904 41.8813 52.3036 46.8813 47.6848 46.8813H15.4903C10.8715 46.8813 7.9847 41.8813 10.2941 37.8813L26.3914 10Z" stroke="#0C0707" stroke-width="2" mask="url(#path-1-outside-1_559_255)"/>
<path d="M30.8293 33.3768C30.7899 32.9172 30.7439 32.3721 30.6914 31.7417C30.6388 31.1113 30.5929 30.4678 30.5535 29.8111C30.5272 29.1545 30.5141 28.5635 30.5141 28.0381V23.5071H32.2083V28.0381C32.2083 28.5635 32.1886 29.1545 32.1492 29.8111C32.1229 30.4678 32.0835 31.1113 32.031 31.7417C31.9916 32.3721 31.9522 32.9172 31.9128 33.3768H30.8293ZM30.1398 37.4941V35.0907H32.5826V37.4941H30.1398Z" stroke="#0C0707" stroke-width="2" mask="url(#path-1-outside-1_559_255)"/>
<path d="M83.5219 35.5612C82.2891 35.5612 81.2399 35.2457 80.374 34.6146C79.5228 33.9836 78.8698 33.059 78.4149 31.841C77.9746 30.6229 77.7545 29.1481 77.7545 27.4164C77.7545 25.6553 77.9746 24.1658 78.4149 22.9477C78.8698 21.7297 79.5228 20.8051 80.374 20.1741C81.2399 19.543 82.2891 19.2275 83.5219 19.2275C84.7546 19.2275 85.7966 19.543 86.6477 20.1741C87.5136 20.8051 88.1666 21.7297 88.6069 22.9477C89.0618 24.1658 89.2893 25.6553 89.2893 27.4164C89.2893 29.1481 89.0618 30.6229 88.6069 31.841C88.1666 33.059 87.5136 33.9836 86.6477 34.6146C85.7966 35.2457 84.7546 35.5612 83.5219 35.5612ZM83.5219 33.7121C84.329 33.7121 85.0114 33.4773 85.5691 33.0077C86.1414 32.5234 86.5744 31.8116 86.8679 30.8724C87.1614 29.9332 87.3081 28.7812 87.3081 27.4164C87.3081 26.0516 87.1614 24.8995 86.8679 23.9603C86.5744 23.0064 86.1414 22.2873 85.5691 21.8031C85.0114 21.3188 84.329 21.0766 83.5219 21.0766C82.7147 21.0766 82.025 21.3188 81.4527 21.8031C80.895 22.2873 80.4694 23.0064 80.1759 23.9603C79.8824 24.8995 79.7356 26.0516 79.7356 27.4164C79.7356 28.7812 79.8824 29.9332 80.1759 30.8724C80.4694 31.8116 80.895 32.5234 81.4527 33.0077C82.025 33.4773 82.7147 33.7121 83.5219 33.7121Z" stroke="#0C0707" stroke-width="2" mask="url(#path-1-outside-1_559_255)"/>
<path d="M92.0984 35.209V19.5797H102.224V35.209H100.331V21.4288H93.9915V35.209H92.0984Z" stroke="#0C0707" stroke-width="2" mask="url(#path-1-outside-1_559_255)"/>
<path d="M104.769 35.209L109.524 19.5797H112.078L116.832 35.209H114.807L110.801 21.2968L106.794 35.209H104.769ZM107.169 30.7624L107.829 28.9133H113.773L114.433 30.7624H107.169Z" stroke="#0C0707" stroke-width="2" mask="url(#path-1-outside-1_559_255)"/>
<path d="M124.484 35.5612C123.237 35.5612 122.18 35.231 121.314 34.5706C120.449 33.9102 119.788 32.971 119.333 31.7529C118.893 30.5349 118.673 29.0894 118.673 27.4164C118.673 25.7287 118.893 24.2758 119.333 23.0578C119.788 21.8397 120.449 20.9005 121.314 20.2401C122.18 19.5651 123.237 19.2275 124.484 19.2275C125.864 19.2275 127.038 19.6825 128.006 20.5923C128.975 21.4875 129.621 22.7423 129.944 24.3566L127.918 24.4886C127.669 23.3586 127.236 22.5075 126.62 21.9351C126.018 21.3628 125.306 21.0766 124.484 21.0766C123.648 21.0766 122.943 21.3261 122.371 21.8251C121.813 22.3094 121.388 23.0284 121.094 23.9823C120.801 24.9216 120.654 26.0662 120.654 27.4164C120.654 28.7518 120.801 29.8892 121.094 30.8284C121.388 31.7676 121.813 32.4867 122.371 32.9857C122.943 33.47 123.648 33.7121 124.484 33.7121C125.394 33.7121 126.165 33.3966 126.796 32.7655C127.427 32.1345 127.852 31.1953 128.072 29.9479L130.076 30.0579C129.797 31.775 129.166 33.1251 128.183 34.1083C127.199 35.0769 125.967 35.5612 124.484 35.5612Z" stroke="#0C0707" stroke-width="2" mask="url(#path-1-outside-1_559_255)"/>
<path d="M132.797 35.209V19.5797H134.69V27.1742L133.721 26.4258H142.438L141.47 27.1742V19.5797H143.363V35.209H141.47V27.5264L142.438 28.2749H133.721L134.69 27.5264V35.209H132.797Z" stroke="#0C0707" stroke-width="2" mask="url(#path-1-outside-1_559_255)"/>
<path d="M151.719 35.5612C150.487 35.5612 149.437 35.2457 148.571 34.6146C147.72 33.9836 147.067 33.059 146.612 31.841C146.172 30.6229 145.952 29.1481 145.952 27.4164C145.952 25.6553 146.172 24.1658 146.612 22.9477C147.067 21.7297 147.72 20.8051 148.571 20.1741C149.437 19.543 150.487 19.2275 151.719 19.2275C152.952 19.2275 153.994 19.543 154.845 20.1741C155.711 20.8051 156.364 21.7297 156.804 22.9477C157.259 24.1658 157.487 25.6553 157.487 27.4164C157.487 29.1481 157.259 30.6229 156.804 31.841C156.364 33.059 155.711 33.9836 154.845 34.6146C153.994 35.2457 152.952 35.5612 151.719 35.5612ZM151.719 33.7121C152.526 33.7121 153.209 33.4773 153.766 33.0077C154.339 32.5234 154.772 31.8116 155.065 30.8724C155.359 29.9332 155.505 28.7812 155.505 27.4164C155.505 26.0516 155.359 24.8995 155.065 23.9603C154.772 23.0064 154.339 22.2873 153.766 21.8031C153.209 21.3188 152.526 21.0766 151.719 21.0766C150.912 21.0766 150.222 21.3188 149.65 21.8031C149.092 22.2873 148.667 23.0064 148.373 23.9603C148.08 24.8995 147.933 26.0516 147.933 27.4164C147.933 28.7812 148.08 29.9332 148.373 30.8724C148.667 31.8116 149.092 32.5234 149.65 33.0077C150.222 33.4773 150.912 33.7121 151.719 33.7121Z" stroke="#0C0707" stroke-width="2" mask="url(#path-1-outside-1_559_255)"/>
<path d="M165.403 35.5612C164.155 35.5612 163.099 35.231 162.233 34.5706C161.367 33.9102 160.707 32.971 160.252 31.7529C159.811 30.5349 159.591 29.0894 159.591 27.4164C159.591 25.7287 159.811 24.2758 160.252 23.0578C160.707 21.8397 161.367 20.9005 162.233 20.2401C163.099 19.5651 164.155 19.2275 165.403 19.2275C166.782 19.2275 167.956 19.6825 168.925 20.5923C169.893 21.4875 170.539 22.7423 170.862 24.3566L168.837 24.4886C168.587 23.3586 168.154 22.5075 167.538 21.9351C166.936 21.3628 166.225 21.0766 165.403 21.0766C164.566 21.0766 163.862 21.3261 163.29 21.8251C162.732 22.3094 162.306 23.0284 162.013 23.9823C161.719 24.9216 161.572 26.0662 161.572 27.4164C161.572 28.7518 161.719 29.8892 162.013 30.8284C162.306 31.7676 162.732 32.4867 163.29 32.9857C163.862 33.47 164.566 33.7121 165.403 33.7121C166.313 33.7121 167.083 33.3966 167.714 32.7655C168.345 32.1345 168.771 31.1953 168.991 29.9479L170.994 30.0579C170.715 31.775 170.084 33.1251 169.101 34.1083C168.118 35.0769 166.885 35.5612 165.403 35.5612Z" stroke="#0C0707" stroke-width="2" mask="url(#path-1-outside-1_559_255)"/>
<path d="M178.052 35.209V21.4288H173.275V19.5797H184.722V21.4288H179.945V35.209H178.052Z" stroke="#0C0707" stroke-width="2" mask="url(#path-1-outside-1_559_255)"/>
<path d="M188.015 19.5797H189.908V25.6553H192.77C193.856 25.6553 194.802 25.8461 195.609 26.2277C196.417 26.6092 197.04 27.1596 197.481 27.8786C197.921 28.5831 198.141 29.4342 198.141 30.4322C198.141 31.4301 197.921 32.2886 197.481 33.0077C197.04 33.7121 196.417 34.2551 195.609 34.6366C194.802 35.0182 193.856 35.209 192.77 35.209H188.015V19.5797ZM189.908 27.5044V33.3599H192.55C193.782 33.3599 194.692 33.1104 195.279 32.6114C195.866 32.0978 196.16 31.3714 196.16 30.4322C196.16 29.4783 195.866 28.7518 195.279 28.2529C194.692 27.7539 193.782 27.5044 192.55 27.5044H189.908Z" stroke="#0C0707" stroke-width="2" mask="url(#path-1-outside-1_559_255)"/>
</svg>
