<svg width="220" height="522" viewBox="0 0 220 522" fill="none" xmlns="http://www.w3.org/2000/svg">
<path d="M181.376 207.697C187.594 210.742 194.787 212.811 199.845 217.025C215.578 230.126 221.361 246.924 218.335 266.327C217.506 271.652 217.278 277.092 216.179 282.36C215.702 284.677 213.713 286.727 212.158 289.332C209.712 287.244 207.929 285.731 206.188 284.256C204.861 285.826 203.618 287.282 202.353 288.757C204.136 294.235 202.747 296.591 196.798 296.093C172.504 294.082 150.241 287.972 137.203 266.653C126.527 249.165 126.942 231.544 138.156 214.286C141.846 208.616 141.97 208.175 134.881 206.93C127.792 205.685 120.765 206.03 114.38 209.804C111.603 211.451 112.328 212.6 115.209 213.788C110.794 218.48 111.395 223.288 113.385 228.881C121.158 250.774 128.414 272.802 135.586 294.867C136.187 296.725 134.736 299.139 134.238 301.303C133.824 303.199 132.684 305.268 133.14 306.973C138.55 327.046 144.52 346.986 149.702 367.097C157.33 396.729 164.834 426.379 171.654 456.164C176.484 477.31 180.111 498.706 184.381 520.56C182.536 520.809 180.857 521.02 179.095 521.25C176.877 510.045 174.742 499.146 172.545 488.267C168.793 469.783 165.29 451.261 161.124 432.873C155.257 407.015 148.914 381.272 142.737 355.471C141.867 351.812 141.017 348.116 139.752 344.572C137.368 337.849 132.497 332.965 125.138 330.992C118.547 329.211 112.349 330.57 107.229 335.282C116.038 343.308 122.983 352.234 126.444 363.075C131.357 378.475 127.626 392.285 116.225 404.237C111.996 408.662 107.685 413.297 99.8078 415.213C101.155 412.742 102.026 411.133 103 409.352C101.653 409.581 100.388 409.811 98.8336 410.079C98.5848 408.394 98.3775 406.957 98.0459 404.62C95.2682 407.494 92.9466 409.715 90.8115 412.129C87.5364 415.806 84.9453 415.845 82.7688 411.458C79.4729 404.793 76.7367 397.897 73.7517 391.098C73.3993 390.274 72.9848 389.469 72.5909 388.665C72.0727 388.742 71.5752 388.837 71.057 388.914C72.1556 395.484 73.275 402.035 74.3529 408.47C67.8233 406.268 60.3195 389.048 62.0607 374.893C64.1958 357.54 81.2348 339.592 97.7971 337.064C94.522 340.684 91.2054 344.361 87.868 348.039C88.0339 348.154 88.1997 348.288 88.3655 348.403C93.1124 344.591 97.8593 340.78 102.606 336.968C102.171 338.213 102.005 339.63 101.28 340.703C95.6413 348.863 95.2268 357.731 97.4862 366.772C98.0873 369.147 100.16 371.599 102.316 373.131C105.114 375.123 108.597 376.291 111.893 377.613C112.452 377.843 113.634 377.345 114.194 376.866C118.319 373.342 118.484 373.342 120.267 378.073C120.578 378.896 120.868 379.72 121.656 381.846C122.299 378.073 122.941 375.736 123.045 373.38C123.625 361.543 117.759 351.927 110.172 343.078C108.141 340.703 105.135 339.017 102.585 337.025C102.896 332.103 107.249 330.015 110.856 327.774C117.925 323.369 125.76 323.139 134.508 326.165C132.103 317.507 130.093 309.52 127.647 301.648C118.008 270.752 108.244 239.895 98.4397 209.037C96.2839 202.276 93.8794 195.591 91.5163 188.887C89.3605 182.796 87.3498 176.763 82.5407 171.668C76.5294 165.289 74.6431 157.379 74.7053 148.951C74.7467 145.043 73.8346 141.117 73.3579 137.19C73.7517 137.037 74.1456 136.884 74.5602 136.731C77.7524 145.369 80.9239 154.008 84.1576 162.627C87.4327 171.38 90.8323 180.076 94.1074 188.83C97.4447 197.717 100.699 206.624 104.327 216.469C106.358 214.343 107.623 212.543 109.364 211.278C113.385 208.367 117.344 205.187 121.843 203.08C127.398 200.476 132.559 204.613 138.011 205.111C141.763 205.456 145.764 206.375 149.246 205.571C158.512 203.444 167.57 203.425 176.691 205.762C177.79 206.049 178.66 207.045 179.655 207.697C179.717 208.176 179.779 208.654 179.862 209.152C180.381 208.674 180.878 208.176 181.396 207.697H181.376ZM200.467 226.468C204.343 233.785 205.815 241.274 205.193 249.28C204.758 254.854 206.996 260.045 210.044 265.121C216.138 257.9 209.484 231.812 200.467 226.468ZM195.678 256.635H189.045C190.973 259.949 192.611 262.765 194.248 265.58C194.725 265.408 195.202 265.236 195.678 265.063V256.635Z" fill="#281F1F"/>
<path d="M33.7866 158.279C27.4644 167.147 26.0341 175.384 33.4343 183.831C36.9167 174.847 40.4406 165.749 43.9438 156.651C44.7314 156.747 45.4984 156.842 46.2861 156.938C39.0725 169.293 43.4877 180.747 47.9444 193.772C49.3332 191.894 49.9344 191.167 50.4319 190.381C50.8879 189.634 51.2403 188.83 51.5719 188.198C52.8364 189.902 54.0801 191.607 55.5311 193.542C53.935 197.066 53.9143 204.9 55.6762 207.218C56.7749 204.919 57.7284 202.487 59.055 200.246C60.6926 197.468 61.9571 193.446 66.8076 196.683C68.1135 197.564 70.0206 198.905 69.9998 200.016C69.9377 205.82 69.3365 211.604 69.7304 217.657C71.2436 211.681 72.7568 205.724 74.27 199.748C74.6431 199.671 75.0162 199.594 75.4101 199.518C75.9905 201.682 77.0476 203.847 77.1098 206.03C77.5451 224.112 69.3572 238.343 53.7899 248.974C49.4991 251.885 44.7729 254.605 39.7773 256.157C36.7923 257.076 32.916 255.467 29.4129 255.141C28.107 255.027 26.4694 255.831 25.4744 255.352C23.0491 254.184 20.5824 252.805 18.6961 250.985C-3.04841 230.05 -7.36 198.56 13.9492 174.407C18.5303 169.216 24.3965 164.964 29.786 160.386C30.8846 159.447 32.4185 158.949 33.7659 158.26L33.7866 158.279Z" fill="#281F1F"/>
<path d="M148.168 91.5268C149.059 89.1133 149.951 86.6999 150.593 84.9377C148.645 84.9377 146.987 85.1293 145.411 84.8994C142.633 84.5163 134.881 90.2243 133.306 93.1166C129.761 99.6481 125.947 106.065 121.822 112.29C119.397 115.929 115.852 116.006 112.307 113.19C102.212 105.184 95.5999 95.53 93.3612 83.1181C88.9874 58.9839 108.286 38.4889 129.802 33.4131C134.466 32.3213 138.985 33.7004 141.908 37.0524C149.64 45.9016 153.703 55.8809 154.47 67.5649C154.946 74.6711 155.382 81.2601 152.169 87.7725C151.443 89.2283 150.531 90.6074 149.723 92.0248C149.205 91.8524 148.686 91.6991 148.168 91.5268ZM115.458 113.171C122.568 105.203 135.026 65.7836 133.243 58.3709C128.082 66.9137 131.668 78.7893 121.656 85.9912C120.454 84.2865 119.728 83.2522 119.003 82.237C118.547 82.2753 118.111 82.3328 117.655 82.3711C116.951 92.3312 116.225 102.291 115.458 113.171ZM143.007 73.79C147.422 71.8555 147.774 70.1124 144.126 65.6495C143.691 68.8674 143.38 71.1468 143.007 73.79Z" fill="#281F1F"/>
<path d="M61.4596 38.9869C59.7183 36.6884 57.9979 34.4283 56.2774 32.1489C55.7592 32.1298 55.2409 32.0915 54.7227 32.0723C53.6863 35.4434 52.6498 38.8337 51.5927 42.2623C49.354 36.9566 47.0116 31.4211 44.2961 24.947C44.0059 30.6166 44.0267 35.0795 43.4462 39.4658C43.1768 41.4578 42.3269 44.3884 38.5957 41.6494C39.9638 49.5409 41.0832 57.3941 42.7829 65.1324C43.4048 67.9672 45.4569 70.4955 46.7421 73.2154C52.2974 84.9569 57.9564 96.6792 63.2837 108.516C65.9577 114.435 68.0721 120.584 70.3522 126.655C70.8497 127.977 70.9948 129.395 70.1864 131.08C68.2171 126.215 66.2686 121.369 64.2787 116.504C59.8635 105.701 55.6348 94.8213 50.8672 84.1524C50.1209 82.4669 47.1567 81.1261 44.9387 80.5898C32.3563 77.5442 21.681 71.9321 14.0114 62.0102C2.98366 47.7404 1.5119 32.4554 9.30593 16.6724C11.669 11.8838 15.4624 7.51669 19.3387 3.55178C23.1735 -0.355667 28.563 -0.834521 33.8074 1.1192C50.2867 7.28684 62.1022 17.4194 66.5588 33.9302C67.388 37.0332 67.844 38.7379 63.4081 37.6845C62.8899 37.5695 62.0814 38.5464 61.4596 38.9869Z" fill="#281F1F"/>
<path d="M101.943 151.23C102.337 149.985 103.145 147.457 104.265 143.913C108.286 148.338 111.457 151.824 114.463 155.138C117.614 152.073 120.64 149.123 124.081 145.771C125.055 147.917 125.512 150.196 126.9 151.805C131.461 157.034 129.782 162.589 127.771 167.799C125.553 173.545 122.361 178.985 119.189 184.348C118.609 185.325 116.204 185.42 114.608 185.823C114.235 185.918 113.468 185.382 113.323 185.516C107.643 191.339 103.187 185.363 98.3361 184.08C97.1131 183.754 96.0352 182.03 95.4755 180.728C93.5892 176.284 92.0967 171.687 90.2311 167.243C89.1532 164.696 89.3812 163.029 91.8687 161.095C95.3304 158.394 98.1495 155.004 101.922 151.249L101.943 151.23Z" fill="#281F1F"/>
<path d="M94.75 147.648C99.7871 145.733 99.1859 141.864 98.6055 138.799C100.637 138.665 102.399 138.569 105.55 138.359C99.7456 146.039 94.1488 153.414 87.8058 161.803C86.1061 157.34 84.8624 154.084 83.5979 150.828C82.5822 148.146 81.9396 145.273 80.4264 142.841C77.3378 137.822 78.3743 133.474 82.1469 129.395C84.5514 126.79 87.184 124.376 90.2933 122.193C88.5935 131.367 88.1997 139.929 94.75 147.648Z" fill="#281F1F"/>
<path d="M87.64 120.162C82.976 119.511 78.5194 118.898 74.0419 118.266C79.7631 114.397 85.5671 115.68 87.64 120.162Z" fill="#281F1F"/>
<path d="M181.376 207.697C180.857 208.176 180.36 208.674 179.842 209.152C179.779 208.674 179.717 208.195 179.634 207.697C180.215 207.697 180.795 207.697 181.355 207.697H181.376Z" fill="white"/>
<path d="M102.565 337.045C105.114 339.037 108.12 340.722 110.151 343.097C117.738 351.947 123.584 361.562 123.024 373.399C122.92 375.755 122.278 378.092 121.635 381.865C120.848 379.758 120.557 378.916 120.246 378.092C118.484 373.38 118.319 373.361 114.173 376.885C113.613 377.364 112.432 377.862 111.872 377.632C108.597 376.291 105.094 375.123 102.295 373.15C100.139 371.618 98.0666 369.166 97.4655 366.791C95.206 357.769 95.6413 348.901 101.259 340.722C102.005 339.65 102.171 338.251 102.585 336.987L102.544 337.025L102.565 337.045Z" fill="white"/>
<path d="M200.467 226.468C209.484 231.812 216.138 257.919 210.044 265.121C206.996 260.045 204.758 254.854 205.193 249.28C205.815 241.274 204.343 233.785 200.467 226.468Z" fill="white"/>
<path d="M195.678 256.635V265.063C195.202 265.236 194.725 265.408 194.248 265.58C192.611 262.765 190.973 259.968 189.045 256.635H195.678Z" fill="white"/>
<path d="M115.458 113.171C116.246 102.291 116.951 92.3312 117.655 82.3711C118.111 82.3328 118.547 82.2753 119.003 82.237C119.728 83.2522 120.454 84.2865 121.656 85.9912C131.668 78.7893 128.082 66.9137 133.243 58.3709C135.005 65.8027 122.568 105.203 115.458 113.171Z" fill="white"/>
<path d="M143.007 73.79C143.38 71.1468 143.691 68.8866 144.126 65.6495C147.774 70.1124 147.422 71.8555 143.007 73.79Z" fill="white"/>
</svg>
