<svg width="7750" height="243" viewBox="0 0 7750 243" fill="none" xmlns="http://www.w3.org/2000/svg">
<g clip-path="url(#clip0_554_171)">
<rect width="310" height="240" transform="translate(7440 1.5)" fill="white"/>
<path d="M7437.88 164.154L7449.81 53.3145L7465.06 141.184L7471.69 95.8493L7483.74 179.411L7502.85 123.179L7522.18 174.49L7534 130.612L7565.18 193.793L7578.6 179.411L7589.06 193.793L7594.14 183.65L7601.67 193.793L7610.12 123.179L7620.64 218.297L7634.5 174.49L7641.43 193.793L7650.93 146.483L7665.35 193.793L7670.37 187.315L7676.47 193.793L7692.87 141.184L7701.08 183.65L7717.41 152.862" stroke="#FF6400" stroke-width="4"/>
<path d="M7436.93 197.814L7456.64 157.073L7478.36 197.814L7483.91 131.37L7494.76 203.176L7503.2 157.073L7510.08 178.627L7523.44 136.179L7534.43 171.58L7537.8 152.749L7546.04 106.614L7553.36 65.6588L7558.23 38.355L7560.67 24.7031L7561.49 37.469L7562.31 50.2349L7563.13 63.0007L7564.77 88.5325L7566.41 114.064L7567.23 126.83L7575.61 109.341L7584 91.8516L7584.91 105.024L7585.82 118.197L7586.73 131.37L7587.64 144.543L7590.83 131.39L7594.02 118.237L7600.39 91.9305L7603.58 78.7774L7609.96 52.4711L7613.15 39.318L7615.88 53.2019L7624.08 94.8534L7626.82 108.737L7632.28 136.505L7635.01 150.389L7639.02 136.179L7651.05 93.5488L7653.96 105.015L7659.8 127.947L7662.71 139.413L7665.17 125.075L7667.63 110.736L7672.55 82.0583L7677.47 53.3807L7682.39 24.7031L7683.12 36.2121L7686.76 93.7573L7688.22 116.775L7691.86 107.641L7699.15 89.373L7702.8 80.2388L7715.14 195.561" stroke="#67DC15" stroke-width="3.37298"/>
</g>
<g clip-path="url(#clip1_554_171)">
<rect width="310" height="240" transform="translate(7130 1.5)" fill="white"/>
<path d="M7127.88 164.154L7139.81 53.3145L7155.06 141.184L7161.69 95.8493L7173.74 179.411L7192.85 123.179L7212.18 174.49L7224.01 130.612L7255.18 193.793L7268.61 179.411L7279.06 193.793L7284.14 183.65L7291.67 193.793L7300.12 123.179L7310.64 218.297L7324.5 174.49L7331.43 193.793L7340.93 146.483L7355.35 193.793L7360.37 187.315L7366.47 193.793L7382.87 141.184L7391.08 183.65" stroke="#FF6400" stroke-width="4"/>
<path d="M7126.93 197.814L7146.64 157.073L7168.36 197.814L7173.91 131.37L7184.76 203.176L7193.2 157.073L7200.08 178.627L7213.44 136.179L7224.43 171.58L7227.8 152.749L7236.04 106.614L7243.36 65.6588L7248.23 38.355L7250.67 24.7031L7251.49 37.469L7252.31 50.2349L7253.13 63.0007L7254.77 88.5325L7256.41 114.064L7257.23 126.83L7265.61 109.341L7274 91.8516L7274.91 105.024L7275.82 118.197L7276.73 131.37L7277.64 144.543L7280.83 131.39L7284.02 118.237L7290.39 91.9305L7293.58 78.7774L7299.96 52.4711L7303.15 39.318L7305.88 53.2019L7314.08 94.8534L7316.82 108.737L7322.28 136.505L7325.01 150.389L7329.02 136.179L7341.05 93.5488L7343.96 105.015L7349.8 127.947L7352.71 139.413L7355.17 125.075L7357.63 110.736L7362.55 82.0583L7367.47 53.3807L7372.39 24.7031L7373.12 36.2121L7376.76 93.7573L7378.22 116.775L7381.86 107.641L7389.15 89.373L7392.8 80.2388" stroke="#67DC15" stroke-width="3.37298"/>
</g>
<g clip-path="url(#clip2_554_171)">
<rect width="310" height="240" transform="translate(6820 1.5)" fill="white"/>
<path d="M6817.88 164.154L6829.81 53.3145L6845.06 141.184L6851.69 95.8493L6863.74 179.411L6882.85 123.179L6902.18 174.49L6914.01 130.612L6945.18 193.793L6958.61 179.411L6969.06 193.793L6974.14 183.65L6981.67 193.793L6990.12 123.179L7000.64 218.297L7014.5 174.49L7021.43 193.793L7030.93 146.483L7045.35 193.793L7050.37 187.315L7056.47 193.793L7072.87 141.184" stroke="#FF6400" stroke-width="4"/>
<path d="M6816.93 197.814L6836.64 157.073L6858.36 197.814L6863.91 131.37L6874.76 203.176L6883.2 157.073L6890.08 178.627L6903.44 136.179L6914.43 171.58L6917.8 152.749L6926.04 106.614L6933.36 65.6588L6938.23 38.355L6940.67 24.7031L6941.49 37.469L6942.31 50.2349L6943.13 63.0007L6944.77 88.5325L6946.41 114.064L6947.23 126.83L6955.61 109.341L6964 91.8516L6964.91 105.024L6965.82 118.197L6966.73 131.37L6967.64 144.543L6970.83 131.39L6974.02 118.237L6980.39 91.9305L6983.58 78.7774L6989.96 52.4711L6993.15 39.318L6995.88 53.2019L7004.08 94.8534L7006.82 108.737L7012.28 136.505L7015.01 150.389L7019.02 136.179L7031.05 93.5488L7033.96 105.015L7039.8 127.947L7042.71 139.413L7045.17 125.075L7047.63 110.736L7052.55 82.0583L7057.47 53.3807L7062.39 24.7031L7063.12 36.2121L7066.76 93.7573L7068.22 116.775" stroke="#67DC15" stroke-width="3.37298"/>
</g>
<g clip-path="url(#clip3_554_171)">
<rect width="310" height="240" transform="translate(6510 1.5)" fill="white"/>
<path d="M6507.88 164.154L6519.81 53.3145L6535.06 141.184L6541.69 95.8493L6553.74 179.411L6572.85 123.179L6592.18 174.49L6604.01 130.612L6635.18 193.793L6648.61 179.411L6659.06 193.793L6664.14 183.65L6671.67 193.793L6680.12 123.179L6690.64 218.297L6704.5 174.49L6711.43 193.793L6720.93 146.483L6735.35 193.793L6740.37 187.315L6746.47 193.793" stroke="#FF6400" stroke-width="4"/>
<path d="M6506.93 197.814L6526.64 157.073L6548.36 197.814L6553.91 131.37L6564.76 203.176L6573.2 157.073L6580.08 178.627L6593.44 136.179L6604.43 171.58L6607.8 152.749L6616.04 106.614L6623.36 65.6588L6628.23 38.355L6630.67 24.7031L6631.49 37.469L6632.31 50.2349L6633.13 63.0007L6634.77 88.5325L6636.41 114.064L6637.23 126.83L6645.61 109.341L6654 91.8516L6654.91 105.024L6655.82 118.197L6656.73 131.37L6657.64 144.543L6660.83 131.39L6664.02 118.237L6670.39 91.9305L6673.58 78.7774L6679.96 52.4711L6683.15 39.318L6685.88 53.2019L6694.08 94.8534L6696.82 108.737L6702.28 136.505L6705.01 150.389L6709.02 136.179L6721.05 93.5488L6723.96 105.015L6729.8 127.947L6732.71 139.413L6735.17 125.075L6737.63 110.736L6742.55 82.0583L6747.47 53.3807L6752.39 24.7031L6753.12 36.2121" stroke="#67DC15" stroke-width="3.37298"/>
</g>
<g clip-path="url(#clip4_554_171)">
<rect width="310" height="240" transform="translate(6200 1.5)" fill="white"/>
<path d="M6197.88 164.154L6209.81 53.3145L6225.06 141.184L6231.69 95.8493L6243.74 179.411L6262.85 123.179L6282.18 174.49L6294.01 130.612L6325.18 193.793L6338.61 179.411L6349.06 193.793L6354.14 183.65L6361.67 193.793L6370.12 123.179L6380.64 218.297L6394.5 174.49L6401.43 193.793L6410.93 146.483L6425.35 193.793L6430.37 187.315" stroke="#FF6400" stroke-width="4"/>
<path d="M6196.93 197.814L6216.64 157.073L6238.36 197.814L6243.91 131.37L6254.76 203.176L6263.2 157.073L6270.08 178.627L6283.44 136.179L6294.43 171.58L6297.8 152.749L6306.04 106.614L6313.36 65.6588L6318.23 38.355L6320.67 24.7031L6321.49 37.469L6322.31 50.2349L6323.13 63.0007L6324.77 88.5325L6326.41 114.064L6327.23 126.83L6335.61 109.341L6344 91.8516L6344.91 105.024L6345.82 118.197L6346.73 131.37L6347.64 144.543L6350.83 131.39L6354.02 118.237L6360.39 91.9305L6363.58 78.7774L6369.96 52.4711L6373.15 39.318L6375.88 53.2019L6384.08 94.8534L6386.82 108.737L6392.28 136.505L6395.01 150.389L6399.02 136.179L6411.05 93.5488L6413.96 105.015L6419.8 127.947L6422.71 139.413L6425.17 125.075L6427.63 110.736L6432.55 82.0583L6437.47 53.3807L6442.39 24.7031" stroke="#67DC15" stroke-width="3.37298"/>
</g>
<g clip-path="url(#clip5_554_171)">
<rect width="310" height="240" transform="translate(5890 1.5)" fill="white"/>
<path d="M5887.88 164.154L5899.81 53.3145L5915.06 141.184L5921.69 95.8493L5933.74 179.411L5952.85 123.179L5972.18 174.49L5984.01 130.612L6015.18 193.793L6028.61 179.411L6039.06 193.793L6044.14 183.65L6051.67 193.793L6060.12 123.179L6070.64 218.297L6084.5 174.49L6091.43 193.793L6100.93 146.483L6115.35 193.793" stroke="#FF6400" stroke-width="4"/>
<path d="M5886.93 197.814L5906.64 157.073L5928.36 197.814L5933.91 131.37L5944.76 203.176L5953.2 157.073L5960.08 178.627L5973.44 136.179L5984.43 171.58L5987.8 152.749L5996.04 106.614L6003.36 65.6588L6008.23 38.355L6010.67 24.7031L6011.49 37.469L6012.31 50.2349L6013.13 63.0007L6014.77 88.5325L6016.41 114.064L6017.23 126.83L6025.61 109.341L6034 91.8516L6034.91 105.024L6035.82 118.197L6036.73 131.37L6037.64 144.543L6040.83 131.39L6044.02 118.237L6050.39 91.9305L6053.58 78.7774L6059.96 52.4711L6063.15 39.318L6065.88 53.2019L6074.08 94.8534L6076.82 108.737L6082.28 136.505L6085.01 150.389L6089.02 136.179L6101.05 93.5488L6103.96 105.015L6109.8 127.947L6112.71 139.413L6115.17 125.075L6117.63 110.736" stroke="#67DC15" stroke-width="3.37298"/>
</g>
<g clip-path="url(#clip6_554_171)">
<rect width="310" height="240" transform="translate(5580 1.5)" fill="white"/>
<path d="M5577.88 164.154L5589.81 53.3145L5605.06 141.184L5611.69 95.8493L5623.74 179.411L5642.85 123.179L5662.18 174.49L5674.01 130.612L5705.18 193.793L5718.61 179.411L5729.06 193.793L5734.14 183.65L5741.67 193.793L5750.12 123.179L5760.64 218.297L5774.5 174.49L5781.43 193.793L5790.93 146.483" stroke="#FF6400" stroke-width="4"/>
<path d="M5576.93 197.814L5596.64 157.073L5618.36 197.814L5623.91 131.37L5634.76 203.176L5643.2 157.073L5650.08 178.627L5663.44 136.179L5674.43 171.58L5677.8 152.749L5686.04 106.614L5693.36 65.6588L5698.23 38.355L5700.67 24.7031L5701.49 37.469L5702.31 50.2349L5703.13 63.0007L5704.77 88.5325L5706.41 114.064L5707.23 126.83L5715.61 109.341L5724 91.8516L5724.91 105.024L5725.82 118.197L5726.73 131.37L5727.64 144.543L5730.83 131.39L5734.02 118.237L5740.39 91.9305L5743.58 78.7774L5749.96 52.4711L5753.15 39.318L5755.88 53.2019L5764.08 94.8534L5766.82 108.737L5772.28 136.505L5775.01 150.389L5779.02 136.179L5791.05 93.5488L5793.96 105.015L5799.8 127.947L5802.71 139.413" stroke="#67DC15" stroke-width="3.37298"/>
</g>
<g clip-path="url(#clip7_554_171)">
<rect width="310" height="240" transform="translate(5270 1.5)" fill="white"/>
<path d="M5267.88 164.154L5279.81 53.3145L5295.06 141.184L5301.69 95.8493L5313.74 179.411L5332.85 123.179L5352.18 174.49L5364.01 130.612L5395.18 193.793L5408.61 179.411L5419.06 193.793L5424.14 183.65L5431.67 193.793L5440.12 123.179L5450.64 218.297L5464.5 174.49" stroke="#FF6400" stroke-width="4"/>
<path d="M5266.93 197.814L5286.64 157.073L5308.36 197.814L5313.91 131.37L5324.76 203.176L5333.2 157.073L5340.08 178.627L5353.44 136.179L5364.43 171.58L5367.8 152.749L5376.04 106.614L5383.36 65.6588L5388.23 38.355L5390.67 24.7031L5391.49 37.469L5392.31 50.2349L5393.13 63.0007L5394.77 88.5325L5396.41 114.064L5397.23 126.83L5405.61 109.341L5414 91.8516L5414.91 105.024L5415.82 118.197L5416.73 131.37L5417.64 144.543L5420.83 131.39L5424.02 118.237L5430.39 91.9305L5433.58 78.7774L5439.96 52.4711L5443.15 39.318L5445.88 53.2019L5454.08 94.8534L5456.82 108.737L5462.28 136.505L5465.01 150.389L5469.02 136.179L5481.05 93.5488" stroke="#67DC15" stroke-width="3.37298"/>
</g>
<g clip-path="url(#clip8_554_171)">
<rect width="310" height="240" transform="translate(4960 1.5)" fill="white"/>
<path d="M4957.88 164.154L4969.81 53.3145L4985.06 141.184L4991.69 95.8493L5003.74 179.411L5022.85 123.179L5042.18 174.49L5054.01 130.612L5085.18 193.793L5098.61 179.411L5109.06 193.793L5114.14 183.65L5121.67 193.793L5130.12 123.179L5140.64 218.297" stroke="#FF6400" stroke-width="4"/>
<path d="M4956.93 197.814L4976.64 157.073L4998.36 197.814L5003.91 131.37L5014.76 203.176L5023.2 157.073L5030.08 178.627L5043.44 136.179L5054.43 171.58L5057.8 152.749L5066.04 106.614L5073.36 65.6588L5078.23 38.355L5080.67 24.7031L5081.49 37.469L5082.31 50.2349L5083.13 63.0007L5084.77 88.5325L5086.41 114.064L5087.23 126.83L5095.61 109.341L5104 91.8516L5104.91 105.024L5105.82 118.197L5106.73 131.37L5107.64 144.543L5110.83 131.39L5114.02 118.237L5120.39 91.9305L5123.58 78.7774L5129.96 52.4711L5133.15 39.318L5135.88 53.2019L5144.08 94.8534L5146.82 108.737L5152.28 136.505L5155.01 150.389" stroke="#67DC15" stroke-width="3.37298"/>
</g>
<g clip-path="url(#clip9_554_171)">
<rect width="310" height="240" transform="translate(4650 1.5)" fill="white"/>
<path d="M4647.88 164.154L4659.81 53.3145L4675.06 141.184L4681.69 95.8493L4693.74 179.411L4712.85 123.179L4732.18 174.49L4744.01 130.612L4775.18 193.793L4788.61 179.411L4799.06 193.793L4804.14 183.65L4811.67 193.793L4820.12 123.179L4830.64 218.297" stroke="#FF6400" stroke-width="4"/>
<path d="M4646.93 197.814L4666.64 157.073L4688.36 197.814L4693.91 131.37L4704.76 203.176L4713.2 157.073L4720.08 178.627L4733.44 136.179L4744.43 171.58L4747.8 152.749L4756.04 106.614L4763.36 65.6588L4768.23 38.355L4770.67 24.7031L4771.49 37.469L4772.31 50.2349L4773.13 63.0007L4774.77 88.5325L4776.41 114.064L4777.23 126.83L4785.61 109.341L4794 91.8516L4794.91 105.024L4795.82 118.197L4796.73 131.37L4797.64 144.543L4800.83 131.39L4804.02 118.237L4810.39 91.9305L4813.58 78.7774L4819.96 52.4711L4823.15 39.318L4825.88 53.2019L4834.08 94.8534L4836.82 108.737L4842.28 136.505L4845.01 150.389" stroke="#67DC15" stroke-width="3.37298"/>
</g>
<g clip-path="url(#clip10_554_171)">
<rect width="310" height="240" transform="translate(4340 1.5)" fill="white"/>
<path d="M4337.88 164.154L4349.81 53.3145L4365.06 141.184L4371.69 95.8493L4383.74 179.411L4402.85 123.179L4422.18 174.49L4434.01 130.612L4465.18 193.793L4478.61 179.411L4489.06 193.793L4494.14 183.65L4501.67 193.793L4510.12 123.179" stroke="#FF6400" stroke-width="4"/>
<path d="M4336.93 197.814L4356.64 157.073L4378.36 197.814L4383.91 131.37L4394.76 203.176L4403.2 157.073L4410.08 178.627L4423.44 136.179L4434.43 171.58L4437.8 152.749L4446.04 106.614L4453.36 65.6588L4458.23 38.355L4460.67 24.7031L4461.49 37.469L4462.31 50.2349L4463.13 63.0007L4464.77 88.5325L4466.41 114.064L4467.23 126.83L4475.61 109.341L4484 91.8516L4484.91 105.024L4485.82 118.197L4486.73 131.37L4487.64 144.543L4490.83 131.39L4494.02 118.237L4500.39 91.9305L4503.58 78.7774L4509.96 52.4711L4513.15 39.318" stroke="#67DC15" stroke-width="3.37298"/>
</g>
<g clip-path="url(#clip11_554_171)">
<rect width="310" height="240" transform="translate(4030 1.5)" fill="white"/>
<path d="M4027.88 164.154L4039.81 53.3145L4055.06 141.184L4061.69 95.8493L4073.74 179.411L4092.85 123.179L4112.18 174.49L4124.01 130.612L4155.18 193.793L4168.61 179.411L4179.06 193.793L4184.14 183.65L4191.67 193.793" stroke="#FF6400" stroke-width="4"/>
<path d="M4026.93 197.814L4046.64 157.073L4068.36 197.814L4073.91 131.37L4084.76 203.176L4093.2 157.073L4100.08 178.627L4113.44 136.179L4124.43 171.58L4127.8 152.749L4136.04 106.614L4143.36 65.6588L4148.23 38.355L4150.67 24.7031L4151.49 37.469L4152.31 50.2349L4153.13 63.0007L4154.77 88.5325L4156.41 114.064L4157.23 126.83L4165.61 109.341L4174 91.8516L4174.91 105.024L4175.82 118.197L4176.73 131.37L4177.64 144.543" stroke="#67DC15" stroke-width="3.37298"/>
</g>
<g clip-path="url(#clip12_554_171)">
<rect width="310" height="240" transform="translate(3720 1.5)" fill="white"/>
<path d="M3717.88 164.154L3729.81 53.3145L3745.06 141.184L3751.69 95.8493L3763.74 179.411L3782.85 123.179L3802.18 174.49L3814.01 130.612L3845.18 193.793L3858.61 179.411L3869.06 193.793L3874.14 183.65" stroke="#FF6400" stroke-width="4"/>
<path d="M3716.93 197.814L3736.64 157.073L3758.36 197.814L3763.91 131.37L3774.76 203.176L3783.2 157.073L3790.08 178.627L3803.44 136.179L3814.43 171.58L3817.8 152.749L3826.04 106.614L3833.36 65.6588L3838.23 38.355L3840.67 24.7031L3841.49 37.469L3842.31 50.2349L3843.13 63.0007L3844.77 88.5325L3846.41 114.064L3847.23 126.83L3855.61 109.341L3864 91.8516" stroke="#67DC15" stroke-width="3.37298"/>
</g>
<g clip-path="url(#clip13_554_171)">
<rect width="310" height="240" transform="translate(3410 1.5)" fill="white"/>
<path d="M3407.88 164.154L3419.81 53.3145L3435.06 141.184L3441.69 95.8493L3453.74 179.411L3472.85 123.179L3492.18 174.49L3504.01 130.612L3535.18 193.793L3548.61 179.411L3559.06 193.793" stroke="#FF6400" stroke-width="4"/>
<path d="M3406.93 197.814L3426.64 157.073L3448.36 197.814L3453.91 131.37L3464.76 203.176L3473.2 157.073L3480.08 178.627L3493.44 136.179L3504.43 171.58L3507.8 152.749L3516.04 106.614L3523.36 65.6588L3528.23 38.355L3530.67 24.7031L3531.49 37.469L3532.31 50.2349L3533.13 63.0007L3534.77 88.5325L3536.41 114.064L3537.23 126.83" stroke="#67DC15" stroke-width="3.37298"/>
</g>
<g clip-path="url(#clip14_554_171)">
<rect width="310" height="240" transform="translate(3100 1.5)" fill="white"/>
<path d="M3097.88 164.154L3109.81 53.3145L3125.06 141.184L3131.69 95.8493L3143.74 179.411L3162.85 123.179L3182.18 174.49L3194.01 130.612L3225.18 193.793L3238.61 179.411" stroke="#FF6400" stroke-width="4"/>
<path d="M3096.93 197.814L3116.64 157.073L3138.36 197.814L3143.91 131.37L3154.76 203.176L3163.2 157.073L3170.08 178.627L3183.44 136.179L3194.43 171.58L3197.8 152.749L3206.04 106.614L3213.36 65.6588L3218.23 38.355L3220.67 24.7031" stroke="#67DC15" stroke-width="3.37298"/>
</g>
<g clip-path="url(#clip15_554_171)">
<rect width="310" height="240" transform="translate(2790 1.5)" fill="white"/>
<path d="M2787.88 164.154L2799.81 53.3145L2815.06 141.184L2821.69 95.8493L2833.74 179.411L2852.85 123.179L2872.18 174.49L2884.01 130.612L2915.18 193.793" stroke="#FF6400" stroke-width="4"/>
<path d="M2786.93 197.814L2806.64 157.074L2828.36 197.814L2833.91 131.371L2844.76 203.177L2853.2 157.074L2860.08 178.628L2873.44 136.18L2884.43 171.581L2887.8 152.75L2896.04 106.615" stroke="#67DC15" stroke-width="3.37298"/>
</g>
<g clip-path="url(#clip16_554_171)">
<rect width="310" height="240" transform="translate(2480 1.5)" fill="white"/>
<path d="M2477.88 164.154L2489.81 53.3145L2505.06 141.184L2511.69 95.8493L2523.74 179.411L2542.85 123.179L2562.18 174.49L2574.01 130.612" stroke="#FF6400" stroke-width="4"/>
<path d="M2476.93 197.814L2496.64 157.074L2518.36 197.814L2523.91 131.371L2534.76 203.177L2543.2 157.074L2550.08 178.628L2563.44 136.18L2574.43 171.581" stroke="#67DC15" stroke-width="3.37298"/>
</g>
<g clip-path="url(#clip17_554_171)">
<rect width="310" height="240" transform="translate(2170 1.5)" fill="white"/>
<path d="M2167.88 164.154L2179.81 53.3145L2195.06 141.184L2201.69 95.8493L2213.74 179.411L2232.85 123.179L2252.18 174.49" stroke="#FF6400" stroke-width="4"/>
<path d="M2166.93 197.814L2186.64 157.074L2208.36 197.814L2213.91 131.371L2224.76 203.177L2233.2 157.074L2240.08 178.628L2253.44 136.18" stroke="#67DC15" stroke-width="3.37298"/>
</g>
<g clip-path="url(#clip18_554_171)">
<rect width="310" height="240" transform="translate(1860 1.5)" fill="white"/>
<path d="M1857.88 164.154L1869.81 53.3145L1885.06 141.184L1891.69 95.8493L1903.74 179.411L1922.85 123.179" stroke="#FF6400" stroke-width="4"/>
<path d="M1856.93 197.814L1876.64 157.074L1898.36 197.814L1903.91 131.371L1914.76 203.177L1923.2 157.074L1930.08 178.628" stroke="#67DC15" stroke-width="3.37298"/>
</g>
<g clip-path="url(#clip19_554_171)">
<rect width="310" height="240" transform="translate(1550 1.5)" fill="white"/>
<path d="M1547.88 164.154L1559.81 53.3145L1575.06 141.184L1581.69 95.8493L1593.74 179.411" stroke="#FF6400" stroke-width="4"/>
<path d="M1546.93 197.814L1566.64 157.074L1588.36 197.814L1593.91 131.371L1604.76 203.177L1613.2 157.074" stroke="#67DC15" stroke-width="3.37298"/>
</g>
<g clip-path="url(#clip20_554_171)">
<rect width="310" height="240" transform="translate(1240 1.5)" fill="white"/>
<path d="M1237.88 164.154L1249.81 53.3145L1265.06 141.184L1271.69 95.8493" stroke="#FF6400" stroke-width="4"/>
<path d="M1236.93 197.814L1256.64 157.074L1278.36 197.814L1283.91 131.371L1294.76 203.177" stroke="#67DC15" stroke-width="3.37298"/>
</g>
<g clip-path="url(#clip21_554_171)">
<rect width="310" height="240" transform="translate(930 1.5)" fill="white"/>
<path d="M927.878 164.154L939.809 53.3145L955.057 141.184" stroke="#FF6400" stroke-width="4"/>
<path d="M926.932 197.814L946.64 157.074L968.357 197.814L973.914 131.371" stroke="#67DC15" stroke-width="3.37298"/>
</g>
<g clip-path="url(#clip22_554_171)">
<rect width="310" height="240" transform="translate(620 1.5)" fill="white"/>
<path d="M617.878 164.154L629.809 53.3145" stroke="#FF6400" stroke-width="4"/>
<path d="M616.932 197.813L636.64 157.072L658.357 197.813" stroke="#67DC15" stroke-width="3.37298"/>
</g>
<g clip-path="url(#clip23_554_171)">
<rect width="310" height="240" transform="translate(310 1.5)" fill="white"/>
<path d="M307.878 164.154L313.843 108.734" stroke="#FF6400" stroke-width="4"/>
<path d="M306.932 197.813L326.64 157.072" stroke="#67DC15" stroke-width="3.37298"/>
</g>
<rect width="310" height="240" transform="translate(0 1.5)" fill="white"/>
<defs>
<clipPath id="clip0_554_171">
<rect width="310" height="240" fill="white" transform="translate(7440 1.5)"/>
</clipPath>
<clipPath id="clip1_554_171">
<rect width="310" height="240" fill="white" transform="translate(7130 1.5)"/>
</clipPath>
<clipPath id="clip2_554_171">
<rect width="310" height="240" fill="white" transform="translate(6820 1.5)"/>
</clipPath>
<clipPath id="clip3_554_171">
<rect width="310" height="240" fill="white" transform="translate(6510 1.5)"/>
</clipPath>
<clipPath id="clip4_554_171">
<rect width="310" height="240" fill="white" transform="translate(6200 1.5)"/>
</clipPath>
<clipPath id="clip5_554_171">
<rect width="310" height="240" fill="white" transform="translate(5890 1.5)"/>
</clipPath>
<clipPath id="clip6_554_171">
<rect width="310" height="240" fill="white" transform="translate(5580 1.5)"/>
</clipPath>
<clipPath id="clip7_554_171">
<rect width="310" height="240" fill="white" transform="translate(5270 1.5)"/>
</clipPath>
<clipPath id="clip8_554_171">
<rect width="310" height="240" fill="white" transform="translate(4960 1.5)"/>
</clipPath>
<clipPath id="clip9_554_171">
<rect width="310" height="240" fill="white" transform="translate(4650 1.5)"/>
</clipPath>
<clipPath id="clip10_554_171">
<rect width="310" height="240" fill="white" transform="translate(4340 1.5)"/>
</clipPath>
<clipPath id="clip11_554_171">
<rect width="310" height="240" fill="white" transform="translate(4030 1.5)"/>
</clipPath>
<clipPath id="clip12_554_171">
<rect width="310" height="240" fill="white" transform="translate(3720 1.5)"/>
</clipPath>
<clipPath id="clip13_554_171">
<rect width="310" height="240" fill="white" transform="translate(3410 1.5)"/>
</clipPath>
<clipPath id="clip14_554_171">
<rect width="310" height="240" fill="white" transform="translate(3100 1.5)"/>
</clipPath>
<clipPath id="clip15_554_171">
<rect width="310" height="240" fill="white" transform="translate(2790 1.5)"/>
</clipPath>
<clipPath id="clip16_554_171">
<rect width="310" height="240" fill="white" transform="translate(2480 1.5)"/>
</clipPath>
<clipPath id="clip17_554_171">
<rect width="310" height="240" fill="white" transform="translate(2170 1.5)"/>
</clipPath>
<clipPath id="clip18_554_171">
<rect width="310" height="240" fill="white" transform="translate(1860 1.5)"/>
</clipPath>
<clipPath id="clip19_554_171">
<rect width="310" height="240" fill="white" transform="translate(1550 1.5)"/>
</clipPath>
<clipPath id="clip20_554_171">
<rect width="310" height="240" fill="white" transform="translate(1240 1.5)"/>
</clipPath>
<clipPath id="clip21_554_171">
<rect width="310" height="240" fill="white" transform="translate(930 1.5)"/>
</clipPath>
<clipPath id="clip22_554_171">
<rect width="310" height="240" fill="white" transform="translate(620 1.5)"/>
</clipPath>
<clipPath id="clip23_554_171">
<rect width="310" height="240" fill="white" transform="translate(310 1.5)"/>
</clipPath>
</defs>
</svg>
