<svg width="43" height="48" viewBox="0 0 43 48" fill="none" xmlns="http://www.w3.org/2000/svg">
<path d="M40.3184 10.5918C41.3545 10.5477 42.2186 11.3752 42.2188 12.4121C42.2188 13.4188 41.4022 14.2354 40.3955 14.2354H26.916V31.2422H26.9883V46.3477C26.9883 46.9831 26.4733 47.498 25.8379 47.498C25.2025 47.4979 24.6875 46.9828 24.6875 46.3477V33.6719H17.9629V46.3477C17.9629 46.9831 17.4479 47.498 16.8125 47.498C16.1771 47.4979 15.6621 46.9828 15.6621 46.3477V14.2354H2.32324C1.31656 14.2354 0.5 13.4188 0.5 12.4121L0.509766 12.2207C0.608436 11.2753 1.42892 10.5505 2.40039 10.5918L21.3379 11.4004H21.3809L40.3184 10.5918ZM21.499 0.5C23.8542 0.500042 25.7637 2.40942 25.7637 4.76465C25.7636 7.11984 23.8542 9.02925 21.499 9.0293C19.1438 9.0293 17.2344 7.11987 17.2344 4.76465C17.2344 2.40939 19.1438 0.5 21.499 0.5Z" fill="#67DC15" stroke="#281F1F"/>
</svg>
