<svg width="39" height="45" viewBox="0 0 39 45" fill="none" xmlns="http://www.w3.org/2000/svg">
<path d="M36.8223 0.321289L37.2051 0.642578L32.1992 6.60742C36.1045 10.086 38.5645 15.1527 38.5645 20.7939L38.5576 21.2842C38.2975 31.5465 29.8973 39.7861 19.5723 39.7861L19.082 39.7793C14.8225 39.6714 10.912 38.1605 7.79395 35.6924L0.765625 44.0693L0 43.4268L7.02734 35.0508C3.1889 31.671 0.724891 26.7671 0.585938 21.2842L0.580078 20.7939C0.580078 10.3049 9.08324 1.80176 19.5723 1.80176L20.0625 1.80762C24.3604 1.91654 28.3029 3.45393 31.4346 5.96191L36.4385 0L36.8223 0.321289ZM8.43652 34.9258C11.4998 37.343 15.3673 38.7861 19.5723 38.7861C29.5089 38.7861 37.5644 30.7306 37.5645 20.7939C37.5645 15.4601 35.2429 10.6688 31.5557 7.37402L8.43652 34.9258ZM19.5723 2.80176C9.63552 2.80176 1.58008 10.8572 1.58008 20.7939C1.58011 26.1666 3.93592 30.9884 7.66992 34.2852L30.792 6.72852C27.7156 4.27129 23.8156 2.80179 19.5723 2.80176Z" fill="#281F1F"/>
</svg>
